HIERARCHY
ROOT mixamorig:Hips
{
	OFFSET 0.000000 201.639420 0.000000
	CHANNELS 6 Xposition Yposition Zposition Xrotation Yrotation Zrotation
	JOINT mixamorig:Spine
	{
		OFFSET 0.006200 19.524994 -2.481800
		CHANNELS 3 Xrotation Yrotation Zrotation
		JOINT mixamorig:Spine1
		{
			OFFSET -0.000900 22.835007 -2.825400
			CHANNELS 3 Xrotation Yrotation Zrotation
			JOINT mixamorig:Spine2
			{
				OFFSET -0.020600 26.552490 -3.193300
				CHANNELS 3 Xrotation Yrotation Zrotation
				JOINT mixamorig:Neck
				{
					OFFSET -0.060000 30.701813 1.352200
					CHANNELS 3 Xrotation Yrotation Zrotation
					JOINT mixamorig:Head
					{
						OFFSET -0.087200 22.547607 3.670900
						CHANNELS 3 Xrotation Yrotation Zrotation
						JOINT mixamorig:HeadTop_End
						{
							OFFSET -0.830600 40.355194 7.893500
							CHANNELS 3 Xrotation Yrotation Zrotation
							End Site
							{
								OFFSET 0.000000 30.592346 0.000000
							}
						}
						JOINT mixamorig:RightEye
						{
							OFFSET -6.302100 18.118591 16.197100
							CHANNELS 3 Xrotation Yrotation Zrotation
							End Site
							{
								OFFSET 0.000000 30.592346 0.000000
							}
						}
						JOINT mixamorig:LeftEye
						{
							OFFSET 6.741500 18.382690 16.401899
							CHANNELS 3 Xrotation Yrotation Zrotation
							End Site
							{
								OFFSET 0.000000 30.592346 0.000000
							}
						}
					}
				}
				JOINT mixamorig:LeftShoulder
				{
					OFFSET 11.924900 18.230499 1.425400
					CHANNELS 3 Xrotation Yrotation Zrotation
					JOINT mixamorig:LeftArm
					{
						OFFSET 25.435989 -0.697632 -5.229300
						CHANNELS 3 Xrotation Yrotation Zrotation
						JOINT mixamorig:LeftForeArm
						{
							OFFSET 54.684776 0.000000 0.000000
							CHANNELS 3 Xrotation Yrotation Zrotation
							JOINT mixamorig:LeftHand
							{
								OFFSET 55.098175 0.000000 0.000000
								CHANNELS 3 Xrotation Yrotation Zrotation
								JOINT mixamorig:LeftHandMiddle1
								{
									OFFSET 23.369751 0.000000 0.000000
									CHANNELS 3 Xrotation Yrotation Zrotation
									JOINT mixamorig:LeftHandMiddle2
									{
										OFFSET 6.378677 0.000000 0.000000
										CHANNELS 3 Xrotation Yrotation Zrotation
										JOINT mixamorig:LeftHandMiddle3
										{
											OFFSET 6.148331 0.000000 0.000000
											CHANNELS 3 Xrotation Yrotation Zrotation
											JOINT mixamorig:LeftHandMiddle4
											{
												OFFSET 6.582504 0.000000 0.000000
												CHANNELS 3 Xrotation Yrotation Zrotation
												End Site
												{
													OFFSET -1.168900 6.395691 1.028606
												}
											}
										}
									}
								}
								JOINT mixamorig:LeftHandThumb1
								{
									OFFSET 7.235672 -3.848206 5.434273
									CHANNELS 3 Xrotation Yrotation Zrotation
									JOINT mixamorig:LeftHandThumb2
									{
										OFFSET 6.568451 -3.792297 3.792300
										CHANNELS 3 Xrotation Yrotation Zrotation
										JOINT mixamorig:LeftHandThumb3
										{
											OFFSET 6.063080 -3.500519 3.500518
											CHANNELS 3 Xrotation Yrotation Zrotation
											JOINT mixamorig:LeftHandThumb4
											{
												OFFSET 4.793182 -2.767334 2.767349
												CHANNELS 3 Xrotation Yrotation Zrotation
												End Site
												{
													OFFSET 0.101639 6.054260 1.275483
												}
											}
										}
									}
								}
								JOINT mixamorig:LeftHandIndex1
								{
									OFFSET 23.101074 -0.309540 4.992809
									CHANNELS 3 Xrotation Yrotation Zrotation
									JOINT mixamorig:LeftHandIndex2
									{
										OFFSET 6.226883 0.000000 0.000000
										CHANNELS 3 Xrotation Yrotation Zrotation
										JOINT mixamorig:LeftHandIndex3
										{
											OFFSET 6.094330 0.000000 0.000000
											CHANNELS 3 Xrotation Yrotation Zrotation
											JOINT mixamorig:LeftHandIndex4
											{
												OFFSET 5.482605 0.000000 0.000000
												CHANNELS 3 Xrotation Yrotation Zrotation
												End Site
												{
													OFFSET -1.427902 5.233032 0.797164
												}
											}
										}
									}
								}
								JOINT mixamorig:LeftHandRing1
								{
									OFFSET 22.299240 0.021149 -3.964172
									CHANNELS 3 Xrotation Yrotation Zrotation
									JOINT mixamorig:LeftHandRing2
									{
										OFFSET 6.321869 0.000000 0.000000
										CHANNELS 3 Xrotation Yrotation Zrotation
										JOINT mixamorig:LeftHandRing3
										{
											OFFSET 5.899796 0.000000 0.000000
											CHANNELS 3 Xrotation Yrotation Zrotation
											JOINT mixamorig:LeftHandRing4
											{
												OFFSET 6.517899 0.000000 0.000000
												CHANNELS 3 Xrotation Yrotation Zrotation
												End Site
												{
													OFFSET -1.637299 6.232208 0.980890
												}
											}
										}
									}
								}
								JOINT mixamorig:LeftHandPinky1
								{
									OFFSET 20.463791 -0.302338 -8.562233
									CHANNELS 3 Xrotation Yrotation Zrotation
									JOINT mixamorig:LeftHandPinky2
									{
										OFFSET 6.908646 0.000000 0.000000
										CHANNELS 3 Xrotation Yrotation Zrotation
										JOINT mixamorig:LeftHandPinky3
										{
											OFFSET 4.622849 0.000000 0.000000
											CHANNELS 3 Xrotation Yrotation Zrotation
											JOINT mixamorig:LeftHandPinky4
											{
												OFFSET 5.216080 0.000000 0.000000
												CHANNELS 3 Xrotation Yrotation Zrotation
												End Site
												{
													OFFSET -0.606308 5.116241 0.814926
												}
											}
										}
									}
								}
							}
						}
					}
				}
				JOINT mixamorig:RightShoulder
				{
					OFFSET -12.001300 18.284088 1.348900
					CHANNELS 3 Xrotation Yrotation Zrotation
					JOINT mixamorig:RightArm
					{
						OFFSET -25.308500 -0.751312 -5.164599
						CHANNELS 3 Xrotation Yrotation Zrotation
						JOINT mixamorig:RightForeArm
						{
							OFFSET -54.684429 0.000000 0.000000
							CHANNELS 3 Xrotation Yrotation Zrotation
							JOINT mixamorig:RightHand
							{
								OFFSET -55.150291 0.000000 0.000000
								CHANNELS 3 Xrotation Yrotation Zrotation
								JOINT mixamorig:RightHandMiddle1
								{
									OFFSET -23.317566 0.000000 0.000000
									CHANNELS 3 Xrotation Yrotation Zrotation
									JOINT mixamorig:RightHandMiddle2
									{
										OFFSET -6.378403 0.000000 0.000000
										CHANNELS 3 Xrotation Yrotation Zrotation
										JOINT mixamorig:RightHandMiddle3
										{
											OFFSET -6.148193 0.000000 0.000000
											CHANNELS 3 Xrotation Yrotation Zrotation
											JOINT mixamorig:RightHandMiddle4
											{
												OFFSET -6.583389 0.000000 0.000000
												CHANNELS 3 Xrotation Yrotation Zrotation
												End Site
												{
													OFFSET 1.171692 6.395905 1.029786
												}
											}
										}
									}
								}
								JOINT mixamorig:RightHandThumb1
								{
									OFFSET -7.190521 -3.860474 5.435846
									CHANNELS 3 Xrotation Yrotation Zrotation
									JOINT mixamorig:RightHandThumb2
									{
										OFFSET -6.567429 -3.791718 3.791708
										CHANNELS 3 Xrotation Yrotation Zrotation
										JOINT mixamorig:RightHandThumb3
										{
											OFFSET -6.062469 -3.500153 3.500166
											CHANNELS 3 Xrotation Yrotation Zrotation
											JOINT mixamorig:RightHandThumb4
											{
												OFFSET -4.792618 -2.767029 2.767022
												CHANNELS 3 Xrotation Yrotation Zrotation
												End Site
												{
													OFFSET -0.100327 6.053253 1.276754
												}
											}
										}
									}
								}
								JOINT mixamorig:RightHandIndex1
								{
									OFFSET -23.048981 -0.310791 4.992554
									CHANNELS 3 Xrotation Yrotation Zrotation
									JOINT mixamorig:RightHandIndex2
									{
										OFFSET -6.227539 0.000000 0.000000
										CHANNELS 3 Xrotation Yrotation Zrotation
										JOINT mixamorig:RightHandIndex3
										{
											OFFSET -6.095047 0.000000 0.000000
											CHANNELS 3 Xrotation Yrotation Zrotation
											JOINT mixamorig:RightHandIndex4
											{
												OFFSET -5.484772 0.000000 0.000000
												CHANNELS 3 Xrotation Yrotation Zrotation
												End Site
												{
													OFFSET 1.420593 5.237305 0.797056
												}
											}
										}
									}
								}
								JOINT mixamorig:RightHandRing1
								{
									OFFSET -22.246323 0.020569 -3.963762
									CHANNELS 3 Xrotation Yrotation Zrotation
									JOINT mixamorig:RightHandRing2
									{
										OFFSET -6.322128 0.000000 0.000000
										CHANNELS 3 Xrotation Yrotation Zrotation
										JOINT mixamorig:RightHandRing3
										{
											OFFSET -5.900024 0.000000 0.000000
											CHANNELS 3 Xrotation Yrotation Zrotation
											JOINT mixamorig:RightHandRing4
											{
												OFFSET -6.518356 0.000000 0.000000
												CHANNELS 3 Xrotation Yrotation Zrotation
												End Site
												{
													OFFSET 1.636398 6.232697 0.982186
												}
											}
										}
									}
								}
								JOINT mixamorig:RightHandPinky1
								{
									OFFSET -20.411011 -0.303314 -8.561701
									CHANNELS 3 Xrotation Yrotation Zrotation
									JOINT mixamorig:RightHandPinky2
									{
										OFFSET -6.907349 0.000000 0.000000
										CHANNELS 3 Xrotation Yrotation Zrotation
										JOINT mixamorig:RightHandPinky3
										{
											OFFSET -4.623840 0.000000 0.000000
											CHANNELS 3 Xrotation Yrotation Zrotation
											JOINT mixamorig:RightHandPinky4
											{
												OFFSET -5.218353 0.000000 0.000000
												CHANNELS 3 Xrotation Yrotation Zrotation
												End Site
												{
													OFFSET 0.602097 5.118835 0.816273
												}
											}
										}
									}
								}
							}
						}
					}
				}
			}
		}
	}
	JOINT mixamorig:LeftUpLeg
	{
		OFFSET 18.168400 -13.561905 -0.039000
		CHANNELS 3 Xrotation Yrotation Zrotation
		JOINT mixamorig:LeftLeg
		{
			OFFSET 0.577358 -80.825211 -3.695000
			CHANNELS 3 Xrotation Yrotation Zrotation
			JOINT mixamorig:LeftFoot
			{
				OFFSET -0.577356 -83.370262 -6.520700
				CHANNELS 3 Xrotation Yrotation Zrotation
				JOINT mixamorig:LeftToeBase
				{
					OFFSET 0.750401 -20.798306 25.135401
					CHANNELS 3 Xrotation Yrotation Zrotation
					JOINT mixamorig:LeftToe_End
					{
						OFFSET -0.000500 0.001200 19.917799
						CHANNELS 3 Xrotation Yrotation Zrotation
						End Site
						{
							OFFSET 0.000000 19.917805 0.000000
						}
					}
				}
			}
		}
	}
	JOINT mixamorig:RightUpLeg
	{
		OFFSET -18.162500 -13.585098 -0.041000
		CHANNELS 3 Xrotation Yrotation Zrotation
		JOINT mixamorig:RightLeg
		{
			OFFSET -0.595024 -80.945297 -3.631900
			CHANNELS 3 Xrotation Yrotation Zrotation
			JOINT mixamorig:RightFoot
			{
				OFFSET 0.595024 -83.218193 -6.561200
				CHANNELS 3 Xrotation Yrotation Zrotation
				JOINT mixamorig:RightToeBase
				{
					OFFSET -0.753601 -20.807106 25.115000
					CHANNELS 3 Xrotation Yrotation Zrotation
					JOINT mixamorig:RightToe_End
					{
						OFFSET 0.000299 0.001700 19.918200
						CHANNELS 3 Xrotation Yrotation Zrotation
						End Site
						{
							OFFSET 0.000000 19.918203 0.000000
						}
					}
				}
			}
		}
	}
}
MOTION
Frames: 4
Frame Time: 0.033333
0.006550 197.074387 -1.287161 -6.426884 0.003985 -0.044252 1.302644 0.005300 -0.038133 3.758684 0.004857 -0.078650 3.758686 0.002741 -0.078553 -3.588952 -0.000005 -0.000000 -2.580577 -0.231951 -0.214963 0.000000 0.000000 0.000000 0.000000 0.000000 0.000000 0.000000 0.000000 0.000000 1.058538 8.538450 -11.090079 13.334283 -12.216950 -60.882189 -0.000006 -46.282246 -0.000023 0.713510 17.357288 -0.405417 1.586799 4.560814 -30.738150 6.828978 6.880985 -89.564209 0.004734 0.255789 -2.120076 -0.000001 0.000002 0.000002 16.022963 12.029771 9.579831 4.386910 12.731750 -0.386046 0.915879 24.413772 5.178196 0.000002 0.000002 -0.000001 0.347662 2.218917 -14.599423 5.509788 6.743785 -78.477255 0.044061 0.779345 -6.472086 -0.000001 -0.000001 0.000000 1.516121 4.315240 -38.701942 6.839976 6.881074 -89.655891 0.197814 1.641786 -13.739442 -0.000000 -0.000002 0.000002 4.057404 7.485259 -38.452906 6.841973 2.794851 -89.679605 0.197811 1.641786 -13.739439 -0.000001 -0.000003 0.000001 0.751133 -9.282190 12.984032 14.499324 8.800762 57.855657 -0.000004 43.746829 0.000023 1.680425 -15.123678 0.363769 1.960869 -4.893335 38.624460 4.665172 -6.564181 70.773648 2.545978 -0.149816 1.945236 0.000002 -0.000000 0.000001 4.360152 -14.926134 -2.289813 5.631646 -18.555696 -0.838068 -0.722493 -4.379489 -3.170470 0.000002 -0.000000 0.000000 0.874206 -3.381405 29.688715 3.013543 -5.731282 55.442712 0.018263 -0.504702 4.145108 0.000001 -0.000003 -0.000000 1.796437 -4.668593 42.074525 4.678865 -6.568907 70.893375 0.087466 -1.101642 9.078734 0.000000 0.000001 0.000000 2.231907 -5.108140 47.181410 4.699413 -6.575938 71.072947 0.412640 -2.363932 19.800447 0.000000 -0.000002 -0.000001 -2.338609 5.011652 10.038933 19.021416 -1.136482 -2.226057 -9.042294 10.579436 -6.838930 -0.000062 0.000005 -0.000003 -0.000000 0.000002 0.000000 -1.792550 4.278462 -8.629510 17.319982 0.759034 0.064540 -6.719748 -14.899774 9.328835 -0.000052 0.000001 0.000002 -0.000000 0.000000 -0.000000 
0.721174 196.589828 -1.222420 -5.747364 -3.803830 -1.122952 2.560920 -0.004119 0.075394 6.764419 -0.004169 0.170744 6.764410 -0.007539 0.171233 -3.946346 -0.594348 -0.115521 -7.438993 -8.131520 0.898161 0.000000 -0.000000 0.000000 0.000000 -0.000000 0.000000 0.000000 -0.000000 0.000000 1.262783 7.581978 -11.058229 10.800619 -14.601669 -58.656988 -0.000005 -47.915601 0.000002 -1.435343 16.163959 4.432608 1.516821 4.390522 -32.478543 6.660546 6.877663 -88.158044 0.025209 0.589903 -4.894343 -0.000000 -0.000002 -0.000002 15.686368 10.580229 9.521371 4.359915 12.748902 -0.334403 0.933117 24.416115 5.150321 0.000002 -0.000002 -0.000002 0.405503 2.354165 -17.222295 5.292305 6.696081 -76.618740 0.097749 1.158466 -9.646270 -0.000002 0.000001 -0.000000 1.629466 4.452610 -40.184691 6.693852 6.878666 -88.436169 0.272732 1.922333 -16.148015 -0.000000 0.000001 -0.000001 4.253213 7.555869 -39.948848 6.696724 2.792510 -88.470341 0.272720 1.922329 -16.147998 -0.000002 0.000003 -0.000002 0.948628 -8.591727 13.538693 13.018959 11.517414 55.516385 0.000019 49.618220 -0.000023 -0.831246 -13.890817 -0.181520 1.773942 -4.674567 37.551714 4.523055 -6.513211 69.525623 1.404084 -0.132711 1.367029 0.000000 -0.000002 0.000000 4.369958 -15.253814 -2.370114 5.633658 -18.544976 -0.836366 -0.808988 -3.789809 -2.796388 -0.000002 0.000004 0.000003 0.691032 -3.053784 29.257744 2.903320 -5.654167 54.331556 0.002861 -0.199891 1.640467 -0.000000 0.000000 -0.000003 1.718055 -4.580566 41.102429 4.551169 -6.523568 69.773360 0.077848 -1.039683 8.564074 -0.000000 -0.000001 0.000001 2.160572 -5.041357 46.374942 4.593442 -6.538890 70.145005 0.395217 -2.314999 19.373492 0.000001 -0.000001 0.000002 -3.410075 4.754782 10.717532 21.319276 -1.183239 -2.832212 -10.756308 13.811099 -6.257423 -0.000024 0.000002 0.000003 -0.000000 0.000000 -0.000000 -3.805261 5.645086 -8.125973 18.196613 0.522865 0.096923 -6.607454 -12.442007 9.738620 -0.246569 -0.000002 -0.000004 -0.000000 -0.000000 0.000000 
2.205275 195.492432 -1.284301 -5.534893 -12.978098 -2.975844 3.383765 -0.118185 0.199855 8.575571 -0.220683 0.406885 8.575617 -0.228257 0.402243 -4.343360 -1.408973 -0.353877 -13.063772 -18.315340 1.435873 -0.000000 0.000000 0.000000 -0.000000 0.000000 0.000000 -0.000000 0.000000 0.000000 1.055201 5.536644 -10.478479 8.553226 -15.139516 -57.828029 0.000006 -49.592484 -0.000007 -4.513052 14.602900 8.819235 1.236735 3.947224 -33.184904 6.186689 6.846223 -84.193529 0.030674 0.650510 -5.398644 -0.000001 -0.000001 0.000000 15.100264 8.546667 9.403907 4.274805 12.807798 -0.224584 0.970669 24.441823 5.093353 0.000002 0.000001 0.000001 0.289556 2.004017 -19.442603 4.777425 6.553185 -72.157950 0.117018 1.266583 -10.556556 0.000000 -0.000000 -0.000001 1.674023 4.504691 -40.755394 6.282592 6.855230 -84.997381 0.287607 1.972970 -16.585871 -0.000001 -0.000000 0.000002 4.329033 7.581690 -40.524656 6.287906 2.769434 -85.060874 0.287608 1.972976 -16.585875 0.000000 0.000000 0.000001 0.971306 -7.484411 14.087741 10.747689 15.849683 53.946825 -0.000003 54.218639 0.000010 -3.404517 -12.084951 -0.591417 1.514162 -4.346854 36.067507 4.194955 -6.381923 66.604467 0.416672 -0.206915 1.806643 0.000004 -0.000000 -0.000001 4.297884 -15.570506 -2.418032 5.636151 -18.566394 -0.837733 -0.888035 -3.373404 -2.537635 -0.000002 0.000002 0.000002 0.510323 -2.752365 30.012702 2.647165 -5.462116 51.687351 0.000019 -0.014328 0.117560 0.000001 0.000000 0.000001 1.611879 -4.456316 39.754652 4.255909 -6.407777 67.151736 0.085216 -1.087432 8.960623 -0.000001 0.000000 0.000001 2.063225 -4.947110 45.256758 4.347800 -6.445481 67.972759 0.408609 -2.352722 19.702463 -0.000001 -0.000002 0.000000 -4.376045 6.348777 11.666611 25.261151 -1.297253 -3.799407 -13.962827 20.247621 -5.021284 -0.000029 -0.000002 0.000002 -0.000000 0.000002 -0.000000 -8.801145 5.879854 -7.464235 21.360604 0.275965 0.165189 -6.468515 -4.267496 9.635547 0.028462 -0.000018 0.042895 0.000000 -0.000000 -0.000000 
4.331837 193.780167 -1.377834 -5.914555 -24.293350 -5.223590 3.803697 -0.542226 0.292513 9.304444 -1.077376 0.593731 9.303725 -1.095266 0.569829 -4.536198 -2.128552 -0.716289 -18.516730 -28.248933 0.207989 -0.000000 -0.000000 -0.000000 -0.000000 -0.000000 -0.000000 -0.000000 -0.000000 -0.000000 0.704564 2.365643 -10.002698 6.957848 -13.471766 -57.978416 0.000008 -50.879633 -0.000005 -7.142221 13.062355 10.985694 0.759677 3.189547 -31.633663 5.364443 6.712721 -77.236633 0.000026 -0.019708 0.163196 0.000001 -0.000002 0.000002 14.757725 6.736214 9.435921 4.146625 12.897816 -0.066831 1.031916 24.485530 5.000760 0.000004 -0.000000 -0.000001 -0.088635 0.977536 -20.109943 3.971939 6.238617 -64.936576 0.025149 0.589167 -4.888217 0.000001 -0.000004 0.000002 1.565519 4.376014 -39.353890 5.566830 6.755098 -78.962465 0.145057 1.408675 -11.757578 -0.000001 0.000003 -0.000001 4.143272 7.516942 -39.110677 5.576261 2.670389 -79.077000 0.145052 1.408690 -11.757582 -0.000002 0.000001 0.000001 0.791284 -5.845404 13.947001 8.076708 21.676686 53.584361 0.000007 57.312589 -0.000004 -5.263074 -9.850139 -0.076904 1.252030 -3.986194 34.229770 3.692713 -6.141682 62.002237 0.004061 -0.382780 3.139629 0.000000 -0.000000 0.000001 4.165224 -15.891562 -2.479647 5.638976 -18.609537 -0.841333 -0.933529 -3.210562 -2.449813 0.000000 -0.000000 -0.000000 0.356087 -2.568486 32.017584 2.259348 -5.133308 47.488820 0.000179 0.050545 -0.414768 -0.000000 0.000001 0.000000 1.484701 -4.299294 38.088738 3.802219 -6.198314 63.021042 0.109448 -1.231349 10.158720 -0.000001 -0.000000 0.000001 1.945449 -4.827969 43.874581 3.968354 -6.279630 64.549714 0.450397 -2.466200 20.696441 0.000001 -0.000000 -0.000000 -5.112882 9.741223 12.512575 29.826996 -1.345463 -4.742150 -18.320333 28.312394 -3.305359 -0.000086 0.000003 -0.000004 -0.000000 0.000002 0.000000 -15.341315 5.095871 -5.639027 27.691568 -0.328654 0.282201 -7.393468 6.039217 7.360278 0.084194 -0.010053 0.982765 0.000000 -0.000002 -0.000000 
